# xmcd
#
# Track frame offsets: 
#        150
#        15330
#        27950
#        40480
#        50932
#        64772
#        74830
#        91440
#        107420
#        122097
#
# Disc length: 1805 seconds
#
# Revision: 4
# Processed by: cddbd v1.5.1PL2 Copyright (c) Steve Scherf et al.
# Submitted via: ExactAudioCopy v0.95a4
#
DISCID=8c070b0a
DTITLE=Billy Joe Shaver - Salt Of The Earth
DYEAR=1987
DGENRE=Country
TTITLE0=Sweet Mama
TTITLE1=Hardworkin' Man
TTITLE2=Manual Labor
TTITLE3=Hill Country Love Song
TTITLE4=You Just Can't Beat Jesus Christ
TTITLE5=The Devil Made Me Do It The First Time
TTITLE6=Fun While It Lasted
TTITLE7=Whiteman's Watermelon
TTITLE8=Street Walkin' Woman
TTITLE9=Good News Blues
EXTD=YEAR: 1987
EXTT0=
EXTT1=
EXTT2=
EXTT3=
EXTT4=
EXTT5=
EXTT6=
EXTT7=
EXTT8=
EXTT9=
PLAYORDER=
